<svg width="126" height="34" viewBox="0 0 126 34" fill="none" xmlns="http://www.w3.org/2000/svg">
<path d="M13.5164 26.4189C12.5255 26.2568 11.5267 25.8672 10.9041 24.9741C9.87445 23.4604 10.2699 21.3887 11.7928 20.3718C13.3101 19.3201 15.369 19.7248 16.3987 21.2385C16.9808 22.1024 16.9728 23.1184 16.8271 24.078C16.5317 25.8836 16.2407 27.9385 19.2352 28.4285C19.6756 28.5005 20.0852 28.6919 20.3998 29.0486C21.066 29.8132 20.9667 30.9726 20.2149 31.6296C19.4503 32.2957 18.2909 32.1965 17.6339 31.4447C17.3285 31.1008 17.1859 30.6592 17.1975 30.2428C17.1771 28.9169 16.3255 26.8672 13.5164 26.4189Z" fill="#002735"/>
<path d="M14.8405 12.452C15.1988 12.8748 15.4791 13.3962 15.421 13.9944C15.3118 14.9992 14.4038 15.7282 13.3997 15.6104C12.3855 15.5091 11.6652 14.6019 11.7744 13.5971C11.8391 13.0256 12.2062 12.6015 12.611 12.2503C13.3816 11.5973 14.2396 10.8379 13.1566 9.55988C12.9973 9.37193 12.8937 9.14488 12.8892 8.88231C12.883 8.32246 13.3398 7.87077 13.891 7.86385C14.4508 7.85766 14.9025 8.31447 14.9094 8.86564C14.9147 9.11953 14.8165 9.35613 14.6625 9.52695C14.1964 10.0915 13.8204 11.2578 14.8405 12.452Z" fill="#002735"/>
<path d="M24.7156 19.7807C24.8375 20.2809 24.8536 20.8304 24.5566 21.3031C24.0483 22.0923 22.9912 22.3205 22.2062 21.8052C21.4059 21.2996 21.1847 20.2466 21.693 19.4575C21.9842 19.0097 22.4655 18.81 22.9476 18.6866C23.8591 18.4645 24.8874 18.1904 24.519 16.6787C24.4649 16.4564 24.4732 16.2248 24.5786 16.0048C24.8061 15.5373 25.3733 15.352 25.8339 15.5753C26.3015 15.8028 26.4868 16.37 26.2635 16.8307C26.1623 17.0437 25.9824 17.1994 25.7835 17.2773C25.1617 17.5525 24.3647 18.3649 24.7156 19.7807Z" fill="#002735"/>
<path fill-rule="evenodd" clip-rule="evenodd" d="M19.5566 19.7552C18.4935 20.0138 17.482 19.6428 16.6278 19.1057C14.2136 17.5747 12.2086 18.5521 11.3111 19.5373C11.2364 19.6268 11.1514 19.7098 11.0577 19.7842C10.6157 20.2224 10.0728 20.5602 9.40861 20.6323C7.93094 20.7758 6.61085 19.6881 6.48004 18.2089C6.32226 16.7201 7.41151 15.4127 8.88918 15.2692C9.73038 15.1913 10.4502 15.5924 11.0762 16.0695C12.1808 16.9316 13.4452 17.8775 14.8576 16.3461C15.1628 15.9747 15.4329 15.551 15.6912 15.1401C16.2198 14.3203 16.8897 13.5497 17.9029 13.2862C19.6854 12.831 21.5056 13.8958 21.9488 15.6974C22.4194 17.4764 21.3391 19.3001 19.5566 19.7552Z" fill="#002735"/>
<path d="M8.81516 5.25422C8.28873 4.8755 7.82307 4.36298 7.71988 3.6674C7.55967 2.49585 8.38421 1.4114 9.5574 1.26124C10.7374 1.08933 11.8118 1.91551 11.972 3.08706C12.0602 3.75411 11.7634 4.33944 11.4031 4.85253C10.713 5.81179 9.95374 6.91657 11.5447 8.06112C11.7787 8.22944 11.9605 8.45789 12.0399 8.75468C12.2053 9.38848 11.8145 10.0305 11.1907 10.1942C10.5569 10.3596 9.91494 9.96875 9.7512 9.345C9.67343 9.05827 9.71799 8.7619 9.84443 8.52444C10.2139 7.75173 10.3109 6.32139 8.81516 5.25422Z" fill="#002735"/>
<path d="M30.4043 5.86911C29.7717 5.93516 29.0964 5.86358 28.5672 5.42153C27.6857 4.66813 27.5821 3.33619 28.3433 2.461C29.0952 1.56546 30.4209 1.46966 31.3024 2.22305C31.802 2.65399 31.9665 3.27622 32.0374 3.88692C32.1577 5.0395 32.3223 6.34376 34.2339 6.14415C34.515 6.11479 34.7972 6.16348 35.0489 6.32901C35.5834 6.68526 35.716 7.4103 35.366 7.93705C35.0098 8.47157 34.2848 8.60412 33.758 8.25416C33.514 8.09492 33.3533 7.84883 33.2911 7.59247C33.0576 6.78561 32.1956 5.67495 30.4043 5.86911Z" fill="#002735"/>
<path d="M30.8832 10.4776C30.274 10.6601 29.5972 10.7154 28.9949 10.3795C27.9887 9.80315 27.6392 8.5137 28.2243 7.51222C28.7966 6.49246 30.0813 6.15178 31.0875 6.72809C31.6586 7.05857 31.9359 7.63937 32.1192 8.22623C32.4518 9.33632 32.8561 10.5872 34.6972 10.0356C34.9679 9.95443 35.2542 9.94979 35.5324 10.0656C36.1238 10.3162 36.3889 11.004 36.143 11.5866C35.8924 12.1781 35.2047 12.4432 34.622 12.1973C34.3527 12.0862 34.149 11.8743 34.0401 11.634C33.6607 10.8846 32.6072 9.95363 30.8832 10.4776Z" fill="#002735"/>
<path d="M2.31995 14.136C2.16718 13.0763 2.89612 12.0953 3.94832 11.9283C4.54815 11.8376 5.08828 12.0981 5.55059 12.4182C5.94326 12.6931 6.35773 12.9748 6.78949 13.0829C6.78949 13.0829 6.78949 13.0829 6.80039 13.0863C7.46528 13.2895 8.17687 12.9112 8.38013 12.2463C8.56007 11.6577 8.29887 10.8746 7.14654 10.3555C6.58371 10.0523 5.84038 10.0277 5.14064 10.0164C4.38308 9.99936 3.61524 9.85998 3.04941 9.29369C2.04037 8.30587 2.03574 6.68355 3.03446 5.67784C4.03318 4.67213 5.6446 4.66417 6.65032 5.66289C7.24551 6.25007 7.40285 7.06095 7.37912 7.84031C7.32947 10.03 8.74819 10.9643 9.75492 11.141C10.0843 11.194 10.388 11.3703 10.6005 11.6498C11.0843 12.2506 10.9912 13.1398 10.3871 13.6345C10.0089 13.936 9.52048 14.0132 9.08449 13.8799C9.01909 13.8599 8.95369 13.8399 8.88072 13.8057C8.18709 13.4625 6.89482 13.4012 5.94116 14.7663C5.60349 15.2471 5.14925 15.6803 4.51339 15.772C3.46453 15.9281 2.47271 15.1958 2.31995 14.136Z" fill="#002735"/>
<path d="M25.1327 22.8327C24.3905 22.4821 23.5075 22.7954 23.1482 23.5289C22.9467 23.9481 23.0159 24.4025 23.1464 24.8134C23.2595 25.1631 23.3726 25.5302 23.3546 25.871C23.3546 25.871 23.3546 25.871 23.3546 25.8797C23.3539 26.4127 22.9164 26.849 22.3834 26.8482C21.9115 26.8476 21.3965 26.4799 21.2755 25.5185C21.1801 25.0378 21.3294 24.4875 21.4787 23.9722C21.6367 23.4132 21.7075 22.8191 21.4199 22.277C20.9232 21.3151 19.7353 20.9465 18.7734 21.4519C17.8116 21.9574 17.4429 23.1365 17.9484 24.0983C18.2447 24.6667 18.8035 24.9646 19.38 25.1227C20.9958 25.5793 21.3611 26.8293 21.2639 27.6069C21.2286 27.8602 21.2894 28.1224 21.4463 28.3411C21.7777 28.8309 22.4503 28.9629 22.9488 28.6316C23.255 28.4223 23.4215 28.0817 23.4219 27.7322C23.422 27.6798 23.4221 27.6274 23.4134 27.5662C23.3181 26.9806 23.5641 26.0198 24.7793 25.6283C25.2076 25.4891 25.6274 25.2537 25.8377 24.8084C26.1882 24.0749 25.8749 23.1832 25.1327 22.8327Z" fill="#002735"/>
<path d="M17.2335 7.70015C17.2591 8.55186 17.9783 9.22897 18.83 9.20333C19.584 9.18063 20.3901 8.5694 20.5393 7.02765C20.6698 6.25509 20.4059 5.38261 20.1438 4.56597C19.8656 3.67994 19.7253 2.73385 20.16 1.85431C20.9096 0.294482 22.7908 -0.349107 24.3511 0.414477C25.9113 1.17806 26.5545 3.04534 25.7909 4.60559C25.3435 5.52744 24.4642 6.02906 23.5503 6.30813C20.9891 7.11194 20.4627 9.12622 20.6537 10.3643C20.7218 10.7675 20.6367 11.1893 20.3958 11.5459C19.8888 12.3438 18.82 12.5856 18.0082 12.079C17.5094 11.7586 17.2277 11.2221 17.2109 10.6636C17.2084 10.5798 17.2059 10.496 17.2169 10.3978C17.5596 7.82912 17.1119 8.78672 17.2335 7.70015Z" fill="#002735"/>
<path d="M14.6092 3.32459C15.6379 2.80211 16.8911 3.20674 17.4255 4.22283C17.7256 4.80361 17.6466 5.44496 17.4798 6.0275C17.335 6.52337 17.1911 7.04378 17.2301 7.52183C17.2301 7.52183 17.2301 7.52184 17.2304 7.53411C17.253 8.28299 17.6485 8.70687 17.6485 8.70687C17.6485 8.70687 18.878 10.8905 17.2226 10.3844C17.3329 9.55777 16.9416 7.73941 15.2185 7.23833C14.6111 7.06002 14.0119 6.74629 13.6984 6.12905C13.1763 5.1126 13.5805 3.84707 14.6092 3.32459Z" fill="#002735"/>
<path d="M26.0239 21.2446C25.1464 20.0946 25.3611 18.4576 26.4928 17.5683C27.1408 17.0665 27.9495 17.0185 28.7056 17.092C29.3499 17.1581 30.0243 17.2177 30.6049 17.0613C30.6049 17.0613 30.6049 17.0613 30.6199 17.058C31.5382 16.8604 32.1289 15.9457 31.9312 15.0275C31.7563 14.2146 30.9329 13.4625 29.2316 13.6081C28.3681 13.6207 27.4748 14.0808 26.6417 14.5278C25.7366 15.0061 24.7389 15.3469 23.6987 15.051C21.8581 14.5493 20.7852 12.6381 21.302 10.7943C21.8187 8.95051 23.7148 7.88089 25.5586 8.39761C26.6473 8.69885 27.3664 9.55211 27.8512 10.4873C29.2333 13.1037 31.5221 13.2727 32.8262 12.8188C33.2498 12.6646 33.7241 12.6728 34.1587 12.8627C35.1248 13.2534 35.6001 14.3639 35.2127 15.345C34.9648 15.9497 34.4393 16.362 33.8372 16.4916C33.7468 16.5111 33.6565 16.5305 33.5479 16.5381C32.5037 16.5896 30.9385 17.3675 30.7115 19.6057C30.6293 20.3952 30.3784 21.2052 29.6884 21.7317C28.5535 22.606 26.9015 22.3945 26.0239 21.2446Z" fill="#002735"/>
<path d="M43.9775 23.9582V9.80371H45.0503V23.9582H43.9775Z" fill="#002735"/>
<path d="M62.0545 16.7198C62.1354 20.3198 59.8304 23.9592 54.8765 23.9592C53.279 23.9592 51.6816 23.9592 50.085 23.9592V9.80469C51.6816 9.80469 53.279 9.80469 54.8765 9.80469C59.6687 9.80469 61.9736 13.2425 62.0545 16.7198ZM51.1765 10.8368V22.9068H54.8765C59.0827 22.9068 61.0235 19.7529 60.963 16.7194C60.9024 13.7672 58.9612 10.8364 54.8765 10.8364H51.1765V10.8368Z" fill="#002735"/>
<path d="M80.4139 16.9011C80.3942 20.6214 78.0279 24.1999 73.2763 24.1999C68.5254 24.1999 66.1396 20.6007 66.1396 16.8609C66.1396 13.0593 68.5051 9.58203 73.2763 9.58203C78.0482 9.58165 80.4348 13.0796 80.4139 16.9011ZM67.2109 16.8812C67.2312 20.0753 69.2536 23.1892 73.2763 23.1892C77.3208 23.1892 79.3628 20.0753 79.3628 16.8812C79.3628 13.6047 77.3411 10.5927 73.2763 10.5927C69.2126 10.5927 67.1905 13.5449 67.2109 16.8812Z" fill="#002735"/>
<path d="M96.1251 9.80469L90.303 23.9994H89.1287L83.3066 9.80469H84.479L89.7159 22.7458L94.9535 9.80469H96.1251Z" fill="#002735"/>
<path d="M101.1 16.3358H109.391V17.3269H101.1V22.9071H110.037V23.9592H100.028V9.80469H109.795V10.8368H101.1V16.3358H101.1Z" fill="#002735"/>
<path d="M115.375 9.80469L124.899 21.5121V9.80469H125.971V23.9592H125.546L116.003 12.2725V23.9592H114.911V9.80469H115.375Z" fill="#002735"/>
</svg>
